<svg xmlns="http://www.w3.org/2000/svg" xmlns:xlink="http://www.w3.org/1999/xlink" width="24" height="24" viewBox="0 0 24 24">
  <defs>
    <linearGradient id="logo-a" x1="100%" x2="-36.906%" y1="0%" y2="125.088%">
      <stop offset="0%" stop-color="#3B5AFF"/>
      <stop offset="100%" stop-color="#5400FF"/>
    </linearGradient>
    <path id="logo-b" d="M19,0 C21.7614237,-5.07265313e-16 24,2.23857625 24,5 L24,19 C24,21.7614237 21.7614237,24 19,24 L12,24 C5.372583,24 8.11624501e-16,18.627417 0,12 L0,5 C-3.38176876e-16,2.23857625 2.23857625,2.28362215e-15 5,0 L19,0 Z M8,7 C7.44771525,7 7,7.44771525 7,8 L7,8 L7,13 C7,15.209139 8.790861,17 11,17 L11,17 L16,17 C16.5522847,17 17,16.5522847 17,16 C17,15.4477153 16.5522847,15 16,15 L16,15 L11,15 C9.8954305,15 9,14.1045695 9,13 L9,13 L9,8 C9,7.44771525 8.55228475,7 8,7 Z M15,11 L12,11 C11.4477153,11 11,11.4477153 11,12 C11,12.5522847 11.4477153,13 12,13 L12,13 L15,13 C15.5522847,13 16,12.5522847 16,12 C16,11.4477153 15.5522847,11 15,11 L15,11 Z M16,7 L12,7 C11.4477153,7 11,7.44771525 11,8 C11,8.55228475 11.4477153,9 12,9 L12,9 L16,9 C16.5522847,9 17,8.55228475 17,8 C17,7.44771525 16.5522847,7 16,7 L16,7 Z"/>
  </defs>
  <use fill="url(#logo-a)" xlink:href="#logo-b"/>
</svg>
